<svg width="246" height="544" viewBox="0 0 246 544" fill="none" xmlns="http://www.w3.org/2000/svg">
<g style="mix-blend-mode:darken" opacity="0.04">
<g style="mix-blend-mode:darken" opacity="0.04">
<path d="M245.07 527.477C218.202 529.632 191.296 530.657 164.352 530.552C147.243 530.466 130.135 529.937 113.055 528.693C104.794 528.092 96.0325 527.477 88.4017 531.052C87.7431 533.097 87.0416 535.128 86.3114 537.13C86.8408 537.285 87.3922 537.353 87.9435 537.33C96.6047 536.577 105.32 536.696 113.957 537.688C121.946 538.832 129.705 541.32 137.709 543.022C170.208 549.971 203.422 543.436 235.979 536.901C240.274 536.043 245.843 533.026 245.07 527.477Z" fill="#333333"/>
</g>
</g>
<path d="M166.199 32.1373C164.223 28.6767 159.384 27.8473 157.093 24.5869C154.445 20.8403 156.02 15.1345 153.07 11.6167C151.135 9.69965 148.523 8.62079 145.797 8.6137C143.1 8.6157 140.411 8.31835 137.78 7.7271C133.127 6.2971 129.763 1.80687 125.01 0.762965C122.447 0.332793 119.815 0.842838 117.6 2.199C115.384 3.55515 113.734 5.66591 112.955 8.14181C112.677 9.07005 112.532 10.033 112.525 11.0018C111.307 11.002 110.102 11.2565 108.987 11.7491C107.873 12.2416 106.874 12.9612 106.054 13.8618C104.336 15.7923 103.549 18.4093 101.759 20.2969C99.9695 22.1845 97.1921 23.3428 95.7031 25.5879C94.9372 26.8533 94.4493 28.2669 94.2715 29.7349C93.4697 34.5397 93.9279 39.8308 96.9344 43.6632C99.9409 47.4956 105.968 49.1401 109.819 46.2229C109.819 46.2229 137.021 59.093 142.59 62.525C145.389 64.1935 148.628 64.9772 151.88 64.7731C155.133 64.5689 158.248 63.3864 160.816 61.381C161.384 60.9999 161.868 60.5062 162.237 59.9306C162.607 59.355 162.854 58.7097 162.963 58.0348C162.818 56.6909 162.409 55.3887 161.761 54.2023C160.486 50.5129 162.577 46.5947 164.438 43.1484C166.299 39.7021 168.132 35.5407 166.199 32.1373Z" fill="#333333"/>
<path d="M100.914 34.8829C103.005 21.7555 116.105 -0.223734 139.369 13.3041C146.699 17.5942 149.82 25.3162 151.295 33.3242C152.34 38.9442 150.35 91.0107 150.35 91.0107C148.718 111.46 116.763 114.549 114.702 90.8677L115.331 76.1529C98.4663 70.7904 98.5809 49.6406 100.914 34.8829Z" fill="#F9C4B4"/>
<path d="M115.332 76.1958C115.332 76.1958 124.852 79.3705 142.82 68.2164C135.763 77.7323 125.992 84.8953 114.787 88.7656L115.332 76.1958Z" fill="#333333"/>
<path d="M163.364 41.8328C163.052 39.4027 161.797 37.1924 159.869 35.6783C157.941 34.1642 155.494 33.4677 153.056 33.7389C151.853 33.8601 150.687 34.2181 149.623 34.7923C148.56 35.3665 147.621 36.1455 146.861 37.0843C146.101 38.023 145.535 39.1029 145.195 40.2616C144.855 41.4203 144.748 42.6347 144.881 43.8348C145.189 46.2654 146.444 48.4767 148.374 49.9892C150.304 51.5017 152.752 52.1934 155.189 51.9143C156.391 51.7949 157.558 51.4386 158.621 50.8658C159.684 50.2931 160.623 49.5155 161.383 48.5779C162.144 47.6402 162.71 46.5613 163.05 45.4035C163.39 44.2457 163.497 43.032 163.364 41.8328V41.8328Z" fill="#F9C4B4"/>
<path d="M155.776 38.8584C155.11 39.0819 154.472 39.3793 153.872 39.745C152.794 40.4128 151.863 41.2936 151.138 42.3333C150.752 42.917 150.431 43.5402 150.178 44.1923C149.838 43.4562 149.787 42.6191 150.035 41.8471C150.269 41.0557 150.709 40.3403 151.309 39.7736C151.908 39.2168 152.636 38.8186 153.428 38.6153C154.214 38.4064 155.05 38.4929 155.776 38.8584V38.8584Z" fill="#251B2D"/>
<path d="M127.83 31.1077C127.83 31.9228 126.556 32.5377 125.095 32.409C123.635 32.2803 122.49 31.551 122.547 30.7359C122.604 29.9208 123.836 29.3059 125.296 29.4346C126.756 29.5633 127.887 30.2926 127.83 31.1077Z" fill="#371C09"/>
<path d="M110.965 30.5929C110.893 31.408 109.662 32.0229 108.202 31.8227C106.741 31.6225 105.639 30.8789 105.711 30.0638C105.782 29.2487 107.013 28.6338 108.459 28.834C109.905 29.0342 111.036 29.7349 110.965 30.5929Z" fill="#371C09"/>
<g style="mix-blend-mode:soft-light" opacity="0.46">
<path d="M134.043 62.7109C139.396 62.7109 143.736 58.3765 143.736 53.0297C143.736 47.683 139.396 43.3486 134.043 43.3486C128.69 43.3486 124.351 47.683 124.351 53.0297C124.351 58.3765 128.69 62.7109 134.043 62.7109Z" fill="#333333"/>
</g>
<path d="M107.758 38.5008C107.758 39.5018 108.116 40.3456 108.689 40.3885C109.261 40.4314 109.805 39.6449 109.862 38.6295C109.92 37.6142 109.519 36.7848 108.932 36.7419C108.345 36.699 107.83 37.4855 107.758 38.5008Z" fill="#333333" stroke="#333333" stroke-width="0.49" stroke-miterlimit="10"/>
<path d="M122.705 39.0157C122.705 40.0167 123.048 40.8604 123.635 40.9033C124.222 40.9462 124.752 40.1597 124.809 39.1444C124.866 38.1291 124.466 37.2996 123.879 37.2567C123.292 37.2138 122.762 38.0003 122.705 39.0157Z" fill="#333333" stroke="#333333" stroke-width="0.49" stroke-miterlimit="10"/>
<g style="mix-blend-mode:soft-light" opacity="0.46">
<path d="M100.17 40.8175C99.405 47.264 99.7536 53.7939 101.201 60.1226C103.664 59.854 105.93 58.6535 107.535 56.7678C109.139 54.882 109.96 52.4542 109.828 49.983C109.696 47.5118 108.621 45.1849 106.825 43.4803C105.029 41.7757 102.648 40.8228 100.17 40.8175V40.8175Z" fill="#333333"/>
</g>
<path d="M120.772 52.1431C120.501 53.0463 119.98 53.8545 119.269 54.474C118.515 55.1945 117.519 55.6076 116.477 55.6323C115.401 55.6231 114.373 55.1916 113.613 54.4311C112.912 53.7807 112.449 52.915 112.296 51.9715C113.098 52.4577 113.728 52.9153 114.472 53.2442C115.076 53.5548 115.741 53.7259 116.419 53.7447C117.114 53.7237 117.797 53.5581 118.424 53.2585C119.197 52.9582 119.898 52.5149 120.772 52.1431Z" fill="#333333"/>
<path d="M115.188 33.7103C115.306 35.8711 115.243 38.0378 115.002 40.1883C114.888 41.2465 114.773 42.319 114.601 43.3772C114.429 44.4354 114.243 45.4936 114.029 46.5518L113.527 45.8368C115.115 46.2638 116.67 46.8038 118.18 47.4527C116.537 47.4443 114.896 47.32 113.27 47.0809H112.711V46.4374C112.797 45.3649 112.898 44.3067 113.041 43.2342C113.184 42.1617 113.341 41.1178 113.527 40.0596C113.901 37.9002 114.456 35.7762 115.188 33.7103V33.7103Z" fill="#251B2D"/>
<path d="M120.772 52.1431C120.501 53.0463 119.98 53.8545 119.269 54.474C118.515 55.1945 117.519 55.6076 116.477 55.6323C115.401 55.6231 114.373 55.1916 113.613 54.4311C112.912 53.7807 112.449 52.915 112.296 51.9715C113.098 52.4577 113.728 52.9153 114.472 53.2442C115.076 53.5548 115.741 53.7259 116.419 53.7447C117.114 53.7237 117.797 53.5581 118.424 53.2585C119.197 52.9582 119.898 52.5149 120.772 52.1431Z" fill="#333333"/>
<path d="M153.443 26.0312C152.194 22.8636 150.369 19.9545 148.059 17.4512C146.248 15.7941 144.25 14.3543 142.104 13.1611C140.589 12.2012 139.016 11.3368 137.393 10.5728C135.549 9.78473 133.631 9.18118 131.667 8.77101C128.562 7.93578 125.33 7.67886 122.132 8.01311C119.356 8.37427 116.776 9.63522 114.787 11.6024C111.752 13.7742 109.178 16.5251 107.214 19.6963C105.925 21.5124 104.665 23.3285 103.406 25.1446C104.216 24.9694 105 24.6906 105.739 24.3152C106.829 23.6695 107.838 22.8966 108.746 22.0129C111.286 19.9036 113.296 17.2296 114.616 14.205C115.386 16.3494 116.913 18.1393 118.911 19.2387C121.466 20.4987 124.316 21.0423 127.157 20.8117C129.519 20.7116 131.982 20.3112 134.201 21.1692C135.306 21.6616 136.302 22.3693 137.131 23.2507C137.959 24.1322 138.603 25.1698 139.026 26.3029C139.868 28.5747 140.421 30.9432 140.672 33.3528C140.709 34.4216 141.091 35.4498 141.76 36.2844C142.261 36.7318 142.884 37.0204 143.55 37.1138C146.413 37.6143 149.062 35.9555 151.281 34.125C152.054 33.6119 152.718 32.951 153.234 32.1803C153.75 31.4096 154.108 30.5445 154.287 29.6348C154.318 28.3813 154.027 27.1408 153.443 26.0312V26.0312Z" fill="#333333"/>
<path d="M43.8909 152.959C60.6272 129.192 103.806 94.5571 103.806 94.5571L114.859 103.666L82.99 171.134C82.99 171.134 61.7296 211.646 47.0693 212.676C24.4202 214.277 22.1438 183.804 43.8909 152.959Z" fill="#F9C4B4"/>
<g style="mix-blend-mode:soft-light" opacity="0.46">
<path d="M103.277 127.562L83.3479 111.774L53.9413 140.761L81.6012 172.221L103.277 127.562Z" fill="#333333"/>
</g>
<path d="M89.7188 157.463L55.0865 129.678C55.0865 129.678 95.3023 81.5298 122.375 91.7829L111.996 110.673L89.7188 157.463Z" fill="#BAD2C8"/>
<path d="M38.1929 129.135L34.8714 130.565C27.4553 133.654 20.0249 136.68 12.5802 139.645C16.6748 164.399 23.9334 193.413 31.3209 203.996C40.5695 217.252 65.2801 204.467 64.1205 191.655C63.7769 186.735 46.6111 147.925 38.1929 129.135Z" fill="#F9C4B4"/>
<path d="M43.576 137.658C39.9701 131.544 36.8951 125.133 34.3846 118.495C34.7712 117.466 37.248 105.997 36.0167 102.966C34.2271 98.2465 25.7516 108.299 25.7087 110.888C25.451 108.471 23.2319 88.6226 19.5954 88.9515C17.405 89.1517 18.4501 102.551 18.4501 102.551C18.4501 102.551 12.3225 85.2621 10.5186 85.9485C8.71471 86.6349 13.4679 103.423 13.4679 103.423C13.4679 103.423 7.21142 90.8963 5.20708 91.8115C3.48907 92.5837 8.18498 106.026 8.18498 106.026C8.18498 106.026 1.89991 98.9758 0.239165 99.8481C-1.42158 100.72 4.79189 111.86 5.69384 115.221C6.30946 117.509 9.25871 140.532 13.1672 153.03C13.654 152.787 35.3438 142.133 43.576 137.658Z" fill="#FC9B27"/>
<path d="M43.576 137.658C43.576 137.658 45.1222 138.616 44.6497 139.273C44.1773 139.931 14.4271 155.561 13.5824 154.174L12.7234 152.744L43.576 137.658Z" fill="#FCB970"/>
<path d="M47.2841 148.854L54.9292 165.285" stroke="#333333" stroke-width="1.1" stroke-miterlimit="10" stroke-linecap="round"/>
<path d="M145.182 204.639C139.283 188.451 96.8341 198.633 96.8341 198.633C96.8341 198.633 76.7907 270.748 71.6653 345.252C65.7811 431.824 88.8454 528.536 88.8454 528.536C102.632 531.467 127.615 530.338 127.615 530.338V394.201C127.515 393.901 132.068 306.413 138.539 280.572C147.372 245.351 145.182 204.639 145.182 204.639Z" fill="#3F5B99"/>
<path d="M182.076 205.597C176.178 189.395 128.603 199.234 128.603 199.234C128.603 199.234 121.946 220.684 120.729 261.468C120.285 276.154 125.797 333.097 125.153 342.549C119.269 429.136 141.102 528.335 141.102 528.335C154.889 531.195 179.871 530.123 179.871 530.123V393.986C179.771 393.686 184.31 306.198 190.781 280.358C199.686 245.094 182.076 205.597 182.076 205.597Z" fill="#435CA1"/>
<g style="mix-blend-mode:soft-light" opacity="0.46">
<path d="M164.066 233.211C147.086 231.609 129.706 233.711 113.069 237.258C106.427 238.688 99.8695 240.346 93.3553 242.205C94.2111 244.757 95.6868 247.056 97.6504 248.898C104.809 255.447 115.99 253.188 125.697 253.645C147.401 254.832 166.142 272.135 187.874 271.692C189.451 271.666 191.022 271.504 192.57 271.206C193.797 260.582 193.483 249.837 191.64 239.302C182.674 236.361 173.437 234.321 164.066 233.211V233.211Z" fill="#333333"/>
</g>
<path d="M166.585 251.629C166.585 251.629 156.564 296.231 174.245 299.105" stroke="#6693B9" stroke-width="1.2" stroke-miterlimit="10" stroke-linecap="round"/>
<path d="M178.096 251.157C174.316 300.821 174.503 300.035 171.381 324.917C168.518 347.911 165.154 431.724 172.341 499.263" stroke="#6693B9" stroke-width="1.2" stroke-miterlimit="10" stroke-linecap="round"/>
<path d="M92.7397 245.88C92.7397 245.88 92.2386 290.854 77.564 293.557" stroke="#6693B9" stroke-width="1.2" stroke-miterlimit="10" stroke-linecap="round"/>
<path d="M121.416 241.691C121.416 241.691 116.649 403.825 128.202 444.666" stroke="#6693B9" stroke-width="1.2" stroke-miterlimit="10" stroke-linecap="round"/>
<path d="M131.739 243.55C131.739 243.55 134.888 298.962 121.803 293.6" stroke="#6693B9" stroke-width="1.2" stroke-miterlimit="10" stroke-linecap="round"/>
<path d="M128.016 499.635L82.0594 500.951L84.6078 520.628C84.6078 520.628 70.291 530.166 70.6346 537.902L127.816 537.173L128.016 499.635Z" fill="#8093A0"/>
<path d="M114.387 534.327C114.387 534.327 108.918 519.484 84.6078 520.685" stroke="#333333" stroke-width="1.04" stroke-miterlimit="10" stroke-linecap="round"/>
<path d="M180.315 499.492L134.358 500.808L136.907 520.47C136.907 520.47 122.59 530.009 122.934 537.745L180.115 537.03L180.315 499.492Z" fill="#8093A0"/>
<path d="M166.686 534.113C166.686 534.113 161.231 519.269 136.907 520.47" stroke="#333333" stroke-width="1.04" stroke-miterlimit="10" stroke-linecap="round"/>
<path d="M149.706 88.2508L114.931 89.6808L107.772 90.2528C96.8056 95.601 95.2451 104.41 91.3939 115.736C82.1739 142.906 83.9205 180.572 86.6837 205.712C86.6837 205.712 77.3635 236.814 83.6056 243.306C91.2221 251.229 114.931 239.617 125.869 241.691C136.463 243.707 151.811 250.185 170.58 250.671C218.169 251.929 191.253 226.161 191.081 216.251C200.473 198.79 195.62 154.975 182.706 120.755C177.996 108.271 170.981 96.03 159.413 89.738C156.979 88.3938 151.71 88.2508 149.706 88.2508Z" fill="#BAD2C8"/>
<path d="M107.987 90.2528C107.987 90.2528 91.9666 203.138 96.3618 246.124C96.5766 248.24 104.708 244.45 104.708 244.45C102.375 209.93 113.828 89.7666 113.828 89.7666L107.987 90.2528Z" fill="#2D458B"/>
<path d="M157.909 88.7799C157.909 88.7799 170.795 207.914 166.414 250.943C166.199 253.045 158.067 249.27 158.067 249.27C160.401 214.749 152.068 88.3223 152.068 88.3223L157.909 88.7799Z" fill="#2D458B"/>
<path d="M207.531 174.924C200.974 146.624 174.001 98.3038 174.001 98.3038L160.329 102.594L164.452 177.097C164.452 177.097 168.905 222.6 182.076 229.078C202.477 239.059 216.064 211.675 207.531 174.924Z" fill="#F9C4B4"/>
<g style="mix-blend-mode:soft-light" opacity="0.46">
<path d="M162.061 129.092L186.471 121.942L202.793 159.851L165.326 178.599L162.061 129.092Z" fill="#333333"/>
</g>
<path d="M163.378 161.882L205.928 149.155C205.928 149.155 186.786 89.4234 157.866 88.7799L160.329 110.23L163.378 161.882Z" fill="#BAD2C8"/>
<path d="M75.302 162.811C75.0729 162.111 66.0391 149.727 66.0391 149.727C66.0391 149.727 66.6403 139.445 76.9341 139.202C87.2278 138.959 176.35 136.871 153.443 160.237C130.536 183.604 75.302 162.811 75.302 162.811Z" fill="#3F1F1F"/>
<path d="M151.524 154.56C151.195 148.754 153.099 143.12 155.246 137.672C162.906 118.324 174.474 99.8624 191.64 88.0792C171.683 106.016 159.52 131.022 157.738 157.778" fill="#698937"/>
<path d="M154.445 155.29C162.309 132.175 177.795 112.412 198.369 99.2332L189.449 109.029C178.397 121.17 166.714 134.769 166.17 151.185" fill="#698937"/>
<path d="M96.6196 182.66C90.4795 180.7 85.2385 176.622 81.8354 171.154C78.4322 165.686 77.0893 159.187 78.0471 152.82C79.005 146.453 82.201 140.635 87.0628 136.407C91.9245 132.18 98.1343 129.82 104.58 129.75C108.259 129.75 111.981 130.465 115.604 129.75C121.03 128.734 126.241 124.616 131.509 126.275C133.385 126.861 134.974 128.134 136.807 128.834C141.402 130.593 146.685 128.491 151.41 129.835C156.134 131.18 159.384 135.77 161.618 140.26C163.742 144.28 165.165 148.633 165.827 153.13C167.817 169.447 154.373 184.776 138.453 189.252C122.533 193.728 103.377 188.308 90.0482 179.657" fill="#FC9A54"/>
<path d="M117.651 134.025C115.216 129.642 112.48 125.432 109.462 121.427C109.031 120.865 108.743 120.206 108.623 119.509C108.503 118.811 108.555 118.094 108.773 117.421C108.991 116.747 109.37 116.137 109.876 115.641C110.383 115.146 111.002 114.781 111.681 114.577C112.034 114.474 112.403 114.44 112.769 114.477C114.558 114.62 115.718 116.393 116.491 118.024C118.914 123.176 120.295 128.754 120.557 134.44" fill="#58302F"/>
<g style="mix-blend-mode:overlay" opacity="0.34">
<g style="mix-blend-mode:overlay" opacity="0.34">
<path d="M105.467 180.815C105.066 181.03 103.033 178.441 101.301 173.494C97.822 163.306 98.2557 152.191 102.518 142.305C103.21 140.708 104.136 139.224 105.267 137.901C106.278 136.785 107.445 135.822 108.731 135.041C110.529 133.939 112.491 133.133 114.544 132.653C115.976 132.338 116.806 132.338 116.892 132.567C116.978 132.796 116.291 133.282 115.088 133.997C113.399 134.93 111.79 136.002 110.278 137.2C108.168 138.901 106.58 141.16 105.696 143.721C104.493 146.993 103.634 150.381 103.134 153.831C102.261 160.164 102.503 166.6 103.849 172.85C104.837 177.626 105.997 180.558 105.467 180.815Z" fill="#333333"/>
</g>
<g style="mix-blend-mode:overlay" opacity="0.34">
<path d="M133.399 178.456C132.927 178.57 131.81 175.91 131.209 171.306C130.908 169.06 130.722 166.372 130.579 163.441C130.436 160.509 130.292 157.334 129.863 154.103C129.509 151.093 128.783 148.139 127.701 145.308C126.782 143.035 125.532 140.911 123.993 139.002C122.662 137.286 121.502 135.841 120.829 134.712C120.156 133.582 119.927 132.924 120.128 132.767C120.328 132.61 120.929 132.981 121.917 133.754C123.325 134.833 124.677 135.984 125.969 137.2C127.994 139.112 129.649 141.381 130.851 143.892C132.261 146.957 133.179 150.224 133.571 153.574C133.961 156.819 134.114 160.088 134.029 163.355C134.029 166.215 133.9 168.86 133.843 171.12C133.786 175.61 133.958 178.341 133.399 178.456Z" fill="#333333"/>
</g>
<g style="mix-blend-mode:overlay" opacity="0.34">
<path d="M156.492 181.988C155.977 181.988 155.204 177.969 154.359 171.391C153.944 168.102 153.5 164.241 153.085 159.823C152.845 155.234 152.091 150.687 150.837 146.266C150.134 144.174 149.041 142.233 147.616 140.546C146.263 138.999 144.612 137.74 142.762 136.842C139.44 135.286 135.836 134.42 132.168 134.297C128.961 134.125 126.284 134.297 124.423 134.211C122.561 134.125 121.559 134.097 121.488 133.839C121.416 133.582 122.447 133.21 124.265 132.767C126.865 132.16 129.515 131.791 132.182 131.666C136.306 131.403 140.435 132.109 144.237 133.725C146.565 134.744 148.652 136.239 150.364 138.115C152.16 140.146 153.523 142.52 154.373 145.094C155.743 149.813 156.465 154.695 156.521 159.608C156.75 163.984 156.922 167.916 156.993 171.234C157.165 177.884 157.007 181.945 156.492 181.988Z" fill="#333333"/>
</g>
<g style="mix-blend-mode:overlay" opacity="0.34">
<path d="M116.219 131.823C116.219 132.395 112.626 132.152 107.3 133.368C104.215 134.072 101.239 135.188 98.4521 136.685C95.0991 138.318 92.2609 140.841 90.2486 143.978C88.3588 147.296 87.8291 151.286 87.3852 154.932C86.9414 158.579 86.5406 161.939 86.2113 164.742C85.5814 170.348 84.9943 173.837 84.4789 173.808C83.9635 173.78 83.6057 170.276 83.577 164.585C83.577 161.725 83.6486 158.35 83.9636 154.575C84.0838 150.249 85.1387 146 87.056 142.119C88.2372 140.109 89.7865 138.338 91.623 136.9C93.2634 135.61 95.0453 134.512 96.9345 133.625C100.091 132.116 103.479 131.15 106.956 130.765C112.797 130.15 116.334 131.394 116.219 131.823Z" fill="#333333"/>
</g>
</g>
<path d="M67.5422 119.539C64.1665 114.071 62.4997 107.722 62.7547 101.303C63.0097 94.8841 65.175 88.6868 68.9739 83.5032C72.224 95.7493 72.3667 108.611 69.3891 120.926" fill="#446815"/>
<path d="M65.3373 123.229C59.0858 119.241 54.0302 113.639 50.7059 107.016C47.3816 100.392 45.9123 92.9945 46.4535 85.6053C55.378 95.6419 62.4502 107.179 67.3417 119.682" fill="#698937"/>
<path d="M63.4619 120.912C59.4269 120.721 55.5334 119.368 52.2512 117.016C48.969 114.663 46.4384 111.413 44.9647 107.656C54.2016 108.492 62.8344 112.6 69.3032 119.239" fill="#446815"/>
<path d="M67.1842 122.385C63.4671 118.581 60.7212 113.939 59.1788 108.852C57.6363 103.764 57.3425 98.3805 58.3222 93.1557C65.0965 99.9241 69.0161 109.028 69.2744 118.596" fill="#88AA4D"/>
<path d="M67.041 119.568C63.4619 118.138 59.582 121.942 59.3243 125.76C59.0666 129.578 61.1712 133.139 63.2614 136.356C72.6819 150.885 83.1331 164.728 93.57 178.556C95.3166 177.927 95.2164 175.453 94.7583 173.651C90.3747 156.01 84.4586 138.784 77.0771 122.171C76.5087 120.489 75.4765 119.002 74.0992 117.881C73.3965 117.358 72.5148 117.135 71.6478 117.261C70.7809 117.387 69.9994 117.852 69.4749 118.553" fill="#F78131"/>
<g opacity="0.36">
<g style="mix-blend-mode:overlay" opacity="0.36">
<g style="mix-blend-mode:overlay" opacity="0.36">
<path d="M68.7306 130.05C69.203 130.965 68.0148 132.51 65.9961 133.339C63.9774 134.168 62.0447 133.897 61.7011 132.924C61.3575 131.952 62.6746 130.65 64.5644 129.878C66.4542 129.106 68.2581 129.135 68.7306 130.05Z" fill="#333333"/>
</g>
</g>
<g style="mix-blend-mode:overlay" opacity="0.36">
<g style="mix-blend-mode:overlay" opacity="0.36">
<path d="M75.7744 136.642C75.6742 135.613 76.9054 134.655 78.4373 134.168C79.9692 133.682 81.5297 133.782 82.0451 134.697C82.5605 135.613 81.5154 137.128 79.554 137.729C77.5926 138.33 75.8603 137.658 75.7744 136.642Z" fill="#333333"/>
</g>
</g>
<g style="mix-blend-mode:overlay" opacity="0.36">
<g style="mix-blend-mode:overlay" opacity="0.36">
<path d="M79.282 148.082C79.7401 149.012 79.01 150.313 77.6499 150.942C76.2898 151.571 74.7865 151.443 74.3284 150.528C73.8702 149.612 74.5861 148.297 75.9605 147.668C77.3349 147.038 78.8095 147.167 79.282 148.082Z" fill="#333333"/>
</g>
</g>
<g style="mix-blend-mode:overlay" opacity="0.36">
<g style="mix-blend-mode:overlay" opacity="0.36">
<path d="M71.8373 117.466C71.7657 118.51 69.7614 119.239 67.5423 119.997C65.3232 120.755 63.2472 121.313 62.5314 120.497C62.2164 120.097 62.3882 119.368 63.0611 118.553C63.9606 117.568 65.1074 116.843 66.3826 116.451C67.6481 116.012 69.0098 115.928 70.3197 116.207C71.2217 116.465 71.8373 116.951 71.8373 117.466Z" fill="#333333"/>
</g>
</g>
</g>
<path d="M71.8372 117.466C71.7656 118.51 69.7612 119.239 67.5421 119.997C65.323 120.755 63.2471 121.313 62.5313 120.497C62.2163 120.097 62.3881 119.368 63.061 118.553C63.9604 117.568 65.1073 116.843 66.3825 116.451C67.648 116.012 69.0096 115.928 70.3196 116.207C71.2216 116.465 71.8372 116.951 71.8372 117.466Z" fill="#333333"/>
<path d="M76.1322 191.311C95.4274 197.174 115.617 199.542 135.747 198.304C146.313 197.632 158.153 195.172 163.822 185.992C167.043 180.787 167.602 174.352 168.117 168.188L169.105 155.318C169.234 153.574 169.105 151.328 167.473 150.742C166.924 150.643 166.36 150.656 165.816 150.781C165.272 150.907 164.759 151.142 164.309 151.471C147.258 160.609 126.942 159.565 107.744 158.307C93.4268 157.349 79.4823 154.989 66.0246 149.727C66.1105 149.727 62.3595 186.893 76.1322 191.311Z" fill="#58302F"/>
<path d="M140.085 163.24C142.075 156.791 144.666 150.37 149.176 145.322C153.686 140.274 160.401 136.842 167.115 137.7C174.273 138.616 179.9 144.007 184.138 149.77C191.176 159.352 195.668 170.559 197.195 182.345C197.621 184.637 197.543 186.994 196.966 189.252C196.653 190.377 196.038 191.396 195.187 192.197C194.337 192.999 193.284 193.553 192.141 193.8C188.519 194.3 185.741 190.782 183.794 187.693L173.486 171.377C171.281 167.492 168.555 163.927 165.383 160.781C163.79 159.212 161.896 157.981 159.814 157.163C157.733 156.344 155.507 155.955 153.271 156.019C148.818 156.376 144.48 159.694 143.922 164.113" fill="#446815"/>
<g style="mix-blend-mode:overlay">
<g style="mix-blend-mode:overlay">
<path d="M190.294 177.183C190.093 177.312 187.889 174.123 184.467 168.875C182.749 166.215 180.745 163.155 178.526 159.622C176.279 155.847 173.329 152.537 169.835 149.87C168.135 148.576 166.163 147.683 164.068 147.26C161.972 146.836 159.808 146.892 157.738 147.424C154.376 148.612 151.357 150.605 148.947 153.23C144.652 157.62 142.805 161.138 142.548 160.981C142.747 160.076 143.126 159.22 143.664 158.464C144.902 156.284 146.381 154.251 148.074 152.401C150.531 149.487 153.703 147.26 157.28 145.937C159.483 145.235 161.83 145.112 164.094 145.58C166.487 146.079 168.755 147.052 170.766 148.44C174.446 151.223 177.52 154.727 179.8 158.736C181.99 162.282 183.866 165.5 185.526 168.202C188.647 173.594 190.494 177.069 190.294 177.183Z" fill="#333333"/>
</g>
<g style="mix-blend-mode:overlay">
<path d="M171.109 163.584C170.895 163.455 171.296 162.482 171.453 160.881C171.638 158.784 171.349 156.673 170.608 154.703C169.812 152.722 168.854 150.809 167.745 148.983C166.886 147.553 166.414 146.538 166.614 146.395C166.814 146.252 167.602 146.967 168.719 148.297C170.223 150.046 171.419 152.038 172.255 154.188C173.114 156.414 173.269 158.85 172.699 161.167C172.126 162.826 171.281 163.655 171.109 163.584Z" fill="#333333"/>
</g>
<g style="mix-blend-mode:overlay">
<path d="M179.385 173.122C178.912 173.122 178.841 169.833 178.826 165.872C178.812 161.91 178.826 158.721 179.356 158.636C179.886 158.55 180.516 161.825 180.516 165.872C180.516 169.918 179.843 173.165 179.385 173.122Z" fill="#333333"/>
</g>
<g style="mix-blend-mode:overlay">
<path d="M179.299 146.795C179.299 147.267 176.679 147.61 173.472 147.725C170.265 147.839 167.631 147.725 167.588 147.21C167.545 146.695 170.15 146.152 173.414 146.037C176.679 145.923 179.313 146.338 179.299 146.795Z" fill="#333333"/>
</g>
<g style="mix-blend-mode:overlay">
<path d="M187.03 159.294C187.03 159.751 185.097 160.094 182.849 159.394C180.601 158.693 179.198 157.306 179.47 156.934C179.742 156.562 181.36 157.163 183.35 157.778C185.34 158.393 187.044 158.75 187.03 159.294Z" fill="#333333"/>
</g>
</g>
<path d="M137.995 158.693C137.995 158.693 149.191 157.263 152.512 156.219L151.753 166.958L136.878 167.659L137.995 158.693Z" fill="#58302F"/>
<path d="M198.598 196.774C194.46 194.186 153.643 185.334 133.299 181.044C130.264 189.624 127.062 198.118 123.692 206.527C146.528 218.196 175.877 230.25 189.277 230.537C205.455 230.794 209.65 203.381 198.598 196.774Z" fill="#F9C4B4"/>
<path d="M165.311 188.122L183.866 191.683" stroke="#333333" stroke-width="1.1" stroke-miterlimit="10" stroke-linecap="round"/>
<path d="M142.333 181.444C131.266 179.071 121.416 177.154 121.416 177.154C120.915 176.168 114.759 164.585 111.752 163.369C107.085 161.467 109.061 173.036 110.951 174.809C108.989 173.379 92.3387 163.769 89.9908 165.514C88.2298 166.83 99.4828 175.91 99.4828 175.91C99.4828 175.91 82.6463 168.631 81.9018 170.419C81.1574 172.207 96.734 180.143 96.734 180.143C96.734 180.143 83.2906 176.196 82.5891 178.284C82.0021 180.072 95.0589 185.792 95.0589 185.792C95.0589 185.792 85.5956 185.577 85.0372 187.393C84.4789 189.209 98.767 192.698 101.559 193.785C109.118 198.633 121.015 208.486 132.841 214.134C133.07 213.634 139.971 190.468 142.333 181.444Z" fill="#FC9B27"/>
<path d="M142.333 181.444C142.333 181.444 144.094 180.958 144.251 181.759C144.409 182.56 135.661 214.949 134.029 214.649L132.44 214.32L142.333 181.444Z" fill="#FCB970"/>
</svg>
